STARTFONT 2.1
COMMENT
COMMENT Converted from OpenType font "courier_10_pitch.ttf" by "otf2bdf 3.0".
COMMENT
FONT -FreeType-Courier10 BT-Medium-R-Normal--17-120-100-100-P-79-ISO10646-1
SIZE 12 100 100
FONTBOUNDINGBOX 11 20 0 -5
STARTPROPERTIES 19
FOUNDRY "FreeType"
FAMILY_NAME "Courier10 BT"
WEIGHT_NAME "Medium"
SLANT "R"
SETWIDTH_NAME "Normal"
ADD_STYLE_NAME ""
PIXEL_SIZE 17
POINT_SIZE 120
RESOLUTION_X 100
RESOLUTION_Y 100
SPACING "P"
AVERAGE_WIDTH 79
CHARSET_REGISTRY "ISO10646"
CHARSET_ENCODING "1"
FONT_ASCENT 14
FONT_DESCENT 5
COPYRIGHT "Copyright 1990-1993 Bitstream Inc.  All rights reserved."
_OTF_FONTFILE "courier_10_pitch.ttf"
_OTF_PSNAME "Courier10PitchBT-Roman"
ENDPROPERTIES
CHARS 191
STARTCHAR 0020
ENCODING 32
SWIDTH 600 0
DWIDTH 10 0
BBX 0 0 0 0
BITMAP
ENDCHAR
STARTCHAR 0021
ENCODING 33
SWIDTH 600 0
DWIDTH 10 0
BBX 3 10 4 0
BITMAP
40
40
40
40
40
40
00
E0
E0
E0
ENDCHAR
STARTCHAR 0022
ENCODING 34
SWIDTH 600 0
DWIDTH 10 0
BBX 3 4 3 6
BITMAP
A0
A0
A0
A0
ENDCHAR
STARTCHAR 0023
ENCODING 35
SWIDTH 600 0
DWIDTH 10 0
BBX 7 12 2 -1
BITMAP
24
24
24
24
FE
6C
6C
FE
48
48
48
48
ENDCHAR
STARTCHAR 0024
ENCODING 36
SWIDTH 600 0
DWIDTH 10 0
BBX 6 13 1 -2
BITMAP
10
7C
84
80
C0
78
0C
84
84
F8
20
20
20
ENDCHAR
STARTCHAR 0025
ENCODING 37
SWIDTH 600 0
DWIDTH 10 0
BBX 7 10 2 0
BITMAP
70
88
88
72
1C
70
9C
22
22
1C
ENDCHAR
STARTCHAR 0026
ENCODING 38
SWIDTH 600 0
DWIDTH 10 0
BBX 7 10 1 0
BITMAP
38
48
40
40
60
76
9C
8C
8C
7E
ENDCHAR
STARTCHAR 0027
ENCODING 39
SWIDTH 600 0
DWIDTH 10 0
BBX 1 4 4 6
BITMAP
80
80
80
80
ENDCHAR
STARTCHAR 0028
ENCODING 40
SWIDTH 600 0
DWIDTH 10 0
BBX 3 13 3 -3
BITMAP
20
40
40
C0
80
80
80
80
80
C0
40
40
20
ENDCHAR
STARTCHAR 0029
ENCODING 41
SWIDTH 600 0
DWIDTH 10 0
BBX 3 13 3 -3
BITMAP
80
40
40
60
20
20
20
20
20
60
40
40
80
ENDCHAR
STARTCHAR 002A
ENCODING 42
SWIDTH 600 0
DWIDTH 10 0
BBX 7 6 1 4
BITMAP
10
92
FE
38
28
6C
ENDCHAR
STARTCHAR 002B
ENCODING 43
SWIDTH 600 0
DWIDTH 10 0
BBX 9 9 0 1
BITMAP
0800
0800
0800
0800
FF80
0800
0800
0800
0800
ENDCHAR
STARTCHAR 002C
ENCODING 44
SWIDTH 600 0
DWIDTH 10 0
BBX 4 4 3 -1
BITMAP
70
60
C0
C0
ENDCHAR
STARTCHAR 002D
ENCODING 45
SWIDTH 600 0
DWIDTH 10 0
BBX 7 2 1 3
BITMAP
FE
FE
ENDCHAR
STARTCHAR 002E
ENCODING 46
SWIDTH 600 0
DWIDTH 10 0
BBX 3 3 3 0
BITMAP
E0
E0
E0
ENDCHAR
STARTCHAR 002F
ENCODING 47
SWIDTH 600 0
DWIDTH 10 0
BBX 6 13 2 -1
BITMAP
04
0C
08
08
10
10
30
20
20
40
40
80
80
ENDCHAR
STARTCHAR 0030
ENCODING 48
SWIDTH 600 0
DWIDTH 10 0
BBX 7 10 2 0
BITMAP
38
44
82
82
82
82
82
82
44
38
ENDCHAR
STARTCHAR 0031
ENCODING 49
SWIDTH 600 0
DWIDTH 10 0
BBX 5 10 2 0
BITMAP
60
E0
20
20
20
20
20
20
20
F8
ENDCHAR
STARTCHAR 0032
ENCODING 50
SWIDTH 600 0
DWIDTH 10 0
BBX 7 10 1 0
BITMAP
7C
C6
82
02
04
0C
18
30
42
FE
ENDCHAR
STARTCHAR 0033
ENCODING 51
SWIDTH 600 0
DWIDTH 10 0
BBX 7 10 2 0
BITMAP
3C
42
02
02
1C
06
02
02
C6
78
ENDCHAR
STARTCHAR 0034
ENCODING 52
SWIDTH 600 0
DWIDTH 10 0
BBX 6 10 1 0
BITMAP
18
18
28
48
48
88
FC
08
08
3C
ENDCHAR
STARTCHAR 0035
ENCODING 53
SWIDTH 600 0
DWIDTH 10 0
BBX 7 10 1 0
BITMAP
7C
40
40
7C
44
02
02
02
44
FC
ENDCHAR
STARTCHAR 0036
ENCODING 54
SWIDTH 600 0
DWIDTH 10 0
BBX 7 10 2 0
BITMAP
1E
20
40
B8
C4
82
82
82
44
3C
ENDCHAR
STARTCHAR 0037
ENCODING 55
SWIDTH 600 0
DWIDTH 10 0
BBX 6 10 2 0
BITMAP
FC
84
08
08
08
10
10
10
30
20
ENDCHAR
STARTCHAR 0038
ENCODING 56
SWIDTH 600 0
DWIDTH 10 0
BBX 7 10 2 0
BITMAP
7C
C6
82
C6
7C
C6
82
82
C6
7C
ENDCHAR
STARTCHAR 0039
ENCODING 57
SWIDTH 600 0
DWIDTH 10 0
BBX 7 10 2 0
BITMAP
78
44
82
82
82
46
3A
04
08
F0
ENDCHAR
STARTCHAR 003A
ENCODING 58
SWIDTH 600 0
DWIDTH 10 0
BBX 3 7 3 0
BITMAP
E0
E0
E0
00
E0
E0
E0
ENDCHAR
STARTCHAR 003B
ENCODING 59
SWIDTH 600 0
DWIDTH 10 0
BBX 4 8 3 -1
BITMAP
70
70
70
00
30
60
60
C0
ENDCHAR
STARTCHAR 003C
ENCODING 60
SWIDTH 600 0
DWIDTH 10 0
BBX 8 8 1 1
BITMAP
03
0E
38
E0
E0
38
0E
03
ENDCHAR
STARTCHAR 003D
ENCODING 61
SWIDTH 600 0
DWIDTH 10 0
BBX 8 4 1 3
BITMAP
FF
00
00
FF
ENDCHAR
STARTCHAR 003E
ENCODING 62
SWIDTH 600 0
DWIDTH 10 0
BBX 8 8 1 1
BITMAP
C0
70
1C
07
07
1C
70
C0
ENDCHAR
STARTCHAR 003F
ENCODING 63
SWIDTH 600 0
DWIDTH 10 0
BBX 6 10 2 0
BITMAP
F8
84
84
04
18
20
00
70
70
70
ENDCHAR
STARTCHAR 0040
ENCODING 64
SWIDTH 600 0
DWIDTH 10 0
BBX 6 12 2 -1
BITMAP
38
44
C4
9C
A4
A4
A4
9C
80
40
40
3C
ENDCHAR
STARTCHAR 0041
ENCODING 65
SWIDTH 600 0
DWIDTH 10 0
BBX 10 10 0 0
BITMAP
3C00
0C00
1600
1200
3200
2300
3F00
6180
4080
F3C0
ENDCHAR
STARTCHAR 0042
ENCODING 66
SWIDTH 600 0
DWIDTH 10 0
BBX 8 10 1 0
BITMAP
FC
42
42
42
7E
43
41
41
43
FE
ENDCHAR
STARTCHAR 0043
ENCODING 67
SWIDTH 600 0
DWIDTH 10 0
BBX 8 10 1 0
BITMAP
1F
63
41
81
80
80
80
40
63
3E
ENDCHAR
STARTCHAR 0044
ENCODING 68
SWIDTH 600 0
DWIDTH 10 0
BBX 9 10 1 0
BITMAP
FE00
4300
4100
4080
4080
4080
4080
4100
4300
FC00
ENDCHAR
STARTCHAR 0045
ENCODING 69
SWIDTH 600 0
DWIDTH 10 0
BBX 8 10 1 0
BITMAP
FF
41
41
44
7C
44
40
41
41
FF
ENDCHAR
STARTCHAR 0046
ENCODING 70
SWIDTH 600 0
DWIDTH 10 0
BBX 8 10 1 0
BITMAP
FF
41
41
44
7C
44
40
40
40
F8
ENDCHAR
STARTCHAR 0047
ENCODING 71
SWIDTH 600 0
DWIDTH 10 0
BBX 9 10 1 0
BITMAP
1F00
6300
4100
8000
8000
8F80
8100
4100
6100
3F00
ENDCHAR
STARTCHAR 0048
ENCODING 72
SWIDTH 600 0
DWIDTH 10 0
BBX 8 10 1 0
BITMAP
E7
42
42
42
7E
42
42
42
42
E7
ENDCHAR
STARTCHAR 0049
ENCODING 73
SWIDTH 600 0
DWIDTH 10 0
BBX 7 10 1 0
BITMAP
FE
10
10
10
10
10
10
10
10
FE
ENDCHAR
STARTCHAR 004A
ENCODING 74
SWIDTH 600 0
DWIDTH 10 0
BBX 9 10 1 0
BITMAP
1F80
0200
0200
0200
0200
0200
8200
8200
C600
7C00
ENDCHAR
STARTCHAR 004B
ENCODING 75
SWIDTH 600 0
DWIDTH 10 0
BBX 8 10 1 0
BITMAP
EF
44
48
50
70
58
4C
44
46
E3
ENDCHAR
STARTCHAR 004C
ENCODING 76
SWIDTH 600 0
DWIDTH 10 0
BBX 9 10 0 0
BITMAP
F800
2000
2000
2000
2000
2000
2080
2080
2080
FF80
ENDCHAR
STARTCHAR 004D
ENCODING 77
SWIDTH 600 0
DWIDTH 10 0
BBX 10 10 0 0
BITMAP
E1C0
6180
6180
5280
5280
5E80
4C80
4080
4080
E1C0
ENDCHAR
STARTCHAR 004E
ENCODING 78
SWIDTH 600 0
DWIDTH 10 0
BBX 9 10 1 0
BITMAP
E780
6100
7100
5100
4900
4D00
4500
4700
4300
F100
ENDCHAR
STARTCHAR 004F
ENCODING 79
SWIDTH 600 0
DWIDTH 10 0
BBX 9 10 1 0
BITMAP
3E00
6300
4100
8080
8080
8080
8080
4100
6300
3E00
ENDCHAR
STARTCHAR 0050
ENCODING 80
SWIDTH 600 0
DWIDTH 10 0
BBX 8 10 1 0
BITMAP
FC
43
41
41
43
7C
40
40
40
E0
ENDCHAR
STARTCHAR 0051
ENCODING 81
SWIDTH 600 0
DWIDTH 10 0
BBX 9 13 1 -3
BITMAP
3E00
6300
4100
8080
8080
8080
8080
C100
6300
3E00
3000
3C80
6300
ENDCHAR
STARTCHAR 0052
ENCODING 82
SWIDTH 600 0
DWIDTH 10 0
BBX 9 10 1 0
BITMAP
FE00
4300
4100
4300
7E00
4E00
4600
4300
4100
E180
ENDCHAR
STARTCHAR 0053
ENCODING 83
SWIDTH 600 0
DWIDTH 10 0
BBX 8 10 1 0
BITMAP
3F
41
81
80
7C
1F
01
81
C3
FC
ENDCHAR
STARTCHAR 0054
ENCODING 84
SWIDTH 600 0
DWIDTH 10 0
BBX 9 10 0 0
BITMAP
FF80
8880
8880
8880
0800
0800
0800
0800
0800
3E00
ENDCHAR
STARTCHAR 0055
ENCODING 85
SWIDTH 600 0
DWIDTH 10 0
BBX 9 10 1 0
BITMAP
E380
4100
4100
4100
4100
4100
4100
4100
2200
1E00
ENDCHAR
STARTCHAR 0056
ENCODING 86
SWIDTH 600 0
DWIDTH 10 0
BBX 10 10 0 0
BITMAP
F3C0
4080
6180
2100
3100
1200
1200
1E00
0C00
0C00
ENDCHAR
STARTCHAR 0057
ENCODING 87
SWIDTH 600 0
DWIDTH 10 0
BBX 10 10 0 0
BITMAP
F3C0
4080
4C80
4C80
4C80
7280
3380
3300
3300
2100
ENDCHAR
STARTCHAR 0058
ENCODING 88
SWIDTH 600 0
DWIDTH 10 0
BBX 9 10 1 0
BITMAP
F780
6300
3600
1400
1C00
1C00
1400
2200
6300
F780
ENDCHAR
STARTCHAR 0059
ENCODING 89
SWIDTH 600 0
DWIDTH 10 0
BBX 9 10 0 0
BITMAP
F780
2300
3200
1400
1400
0800
0800
0800
0800
3E00
ENDCHAR
STARTCHAR 005A
ENCODING 90
SWIDTH 600 0
DWIDTH 10 0
BBX 6 10 2 0
BITMAP
FC
8C
88
90
30
20
64
44
84
FC
ENDCHAR
STARTCHAR 005B
ENCODING 91
SWIDTH 600 0
DWIDTH 10 0
BBX 3 13 3 -3
BITMAP
E0
80
80
80
80
80
80
80
80
80
80
80
E0
ENDCHAR
STARTCHAR 005C
ENCODING 92
SWIDTH 600 0
DWIDTH 10 0
BBX 6 13 2 -1
BITMAP
80
C0
40
40
20
20
30
10
10
08
08
04
04
ENDCHAR
STARTCHAR 005D
ENCODING 93
SWIDTH 600 0
DWIDTH 10 0
BBX 3 13 3 -3
BITMAP
E0
20
20
20
20
20
20
20
20
20
20
20
E0
ENDCHAR
STARTCHAR 005E
ENCODING 94
SWIDTH 600 0
DWIDTH 10 0
BBX 6 4 2 7
BITMAP
30
78
48
84
ENDCHAR
STARTCHAR 005F
ENCODING 95
SWIDTH 600 0
DWIDTH 10 0
BBX 11 1 0 -5
BITMAP
FFE0
ENDCHAR
STARTCHAR 0060
ENCODING 96
SWIDTH 600 0
DWIDTH 10 0
BBX 5 3 2 8
BITMAP
C0
60
18
ENDCHAR
STARTCHAR 0061
ENCODING 97
SWIDTH 600 0
DWIDTH 10 0
BBX 8 8 1 0
BITMAP
7C
46
02
02
7E
82
86
7B
ENDCHAR
STARTCHAR 0062
ENCODING 98
SWIDTH 600 0
DWIDTH 10 0
BBX 9 11 1 0
BITMAP
C000
4000
4000
5E00
6100
4080
4080
4080
4080
6100
DE00
ENDCHAR
STARTCHAR 0063
ENCODING 99
SWIDTH 600 0
DWIDTH 10 0
BBX 8 8 1 0
BITMAP
3F
43
81
80
80
81
43
3C
ENDCHAR
STARTCHAR 0064
ENCODING 100
SWIDTH 600 0
DWIDTH 10 0
BBX 9 11 1 0
BITMAP
0700
0100
0100
3D00
4300
8100
8100
8100
8100
4300
3D80
ENDCHAR
STARTCHAR 0065
ENCODING 101
SWIDTH 600 0
DWIDTH 10 0
BBX 9 8 1 0
BITMAP
3E00
4100
8080
FF80
8000
8000
4000
3F80
ENDCHAR
STARTCHAR 0066
ENCODING 102
SWIDTH 600 0
DWIDTH 10 0
BBX 7 11 2 0
BITMAP
1E
20
20
FC
20
20
20
20
20
20
FC
ENDCHAR
STARTCHAR 0067
ENCODING 103
SWIDTH 600 0
DWIDTH 10 0
BBX 8 11 1 -3
BITMAP
3B
46
82
82
82
82
46
3A
02
06
7C
ENDCHAR
STARTCHAR 0068
ENCODING 104
SWIDTH 600 0
DWIDTH 10 0
BBX 8 11 1 0
BITMAP
C0
40
40
5C
62
42
42
42
42
42
E7
ENDCHAR
STARTCHAR 0069
ENCODING 105
SWIDTH 600 0
DWIDTH 10 0
BBX 7 12 2 0
BITMAP
10
10
00
00
70
10
10
10
10
10
10
FE
ENDCHAR
STARTCHAR 006A
ENCODING 106
SWIDTH 600 0
DWIDTH 10 0
BBX 5 15 2 -3
BITMAP
10
10
00
00
F8
08
08
08
08
08
08
08
08
18
F0
ENDCHAR
STARTCHAR 006B
ENCODING 107
SWIDTH 600 0
DWIDTH 10 0
BBX 8 11 1 0
BITMAP
C0
40
40
4E
4C
50
70
58
48
44
CF
ENDCHAR
STARTCHAR 006C
ENCODING 108
SWIDTH 600 0
DWIDTH 10 0
BBX 7 11 1 0
BITMAP
F0
10
10
10
10
10
10
10
10
10
FE
ENDCHAR
STARTCHAR 006D
ENCODING 109
SWIDTH 600 0
DWIDTH 10 0
BBX 11 8 0 0
BITMAP
FB80
4640
4440
4440
4440
4440
4440
E660
ENDCHAR
STARTCHAR 006E
ENCODING 110
SWIDTH 600 0
DWIDTH 10 0
BBX 8 8 1 0
BITMAP
DC
62
42
42
42
42
42
E7
ENDCHAR
STARTCHAR 006F
ENCODING 111
SWIDTH 600 0
DWIDTH 10 0
BBX 9 8 1 0
BITMAP
3E00
4100
8080
8080
8080
8080
4100
3E00
ENDCHAR
STARTCHAR 0070
ENCODING 112
SWIDTH 600 0
DWIDTH 10 0
BBX 9 11 1 -3
BITMAP
DE00
6100
4080
4080
4080
4080
6100
5E00
4000
4000
F800
ENDCHAR
STARTCHAR 0071
ENCODING 113
SWIDTH 600 0
DWIDTH 10 0
BBX 9 11 1 -3
BITMAP
3D80
4300
8100
8100
8100
8100
4300
3D00
0100
0100
0F80
ENDCHAR
STARTCHAR 0072
ENCODING 114
SWIDTH 600 0
DWIDTH 10 0
BBX 8 8 1 0
BITMAP
EF
3A
30
20
20
20
20
FC
ENDCHAR
STARTCHAR 0073
ENCODING 115
SWIDTH 600 0
DWIDTH 10 0
BBX 7 8 1 0
BITMAP
7E
86
82
F0
3E
82
C2
FC
ENDCHAR
STARTCHAR 0074
ENCODING 116
SWIDTH 600 0
DWIDTH 10 0
BBX 8 10 1 0
BITMAP
20
20
FE
20
20
20
20
20
23
1E
ENDCHAR
STARTCHAR 0075
ENCODING 117
SWIDTH 600 0
DWIDTH 10 0
BBX 8 8 1 0
BITMAP
CE
42
42
42
42
42
46
3B
ENDCHAR
STARTCHAR 0076
ENCODING 118
SWIDTH 600 0
DWIDTH 10 0
BBX 9 8 0 0
BITMAP
E780
4300
6200
2600
2400
3400
1C00
1800
ENDCHAR
STARTCHAR 0077
ENCODING 119
SWIDTH 600 0
DWIDTH 10 0
BBX 10 8 0 0
BITMAP
E1C0
4080
4C80
4C80
6C80
3300
3300
3300
ENDCHAR
STARTCHAR 0078
ENCODING 120
SWIDTH 600 0
DWIDTH 10 0
BBX 9 8 1 0
BITMAP
F780
2200
1400
1C00
1C00
3600
2300
F780
ENDCHAR
STARTCHAR 0079
ENCODING 121
SWIDTH 600 0
DWIDTH 10 0
BBX 9 11 0 -3
BITMAP
F380
6100
2200
3200
1600
1400
0C00
0800
1800
1000
F800
ENDCHAR
STARTCHAR 007A
ENCODING 122
SWIDTH 600 0
DWIDTH 10 0
BBX 7 8 2 0
BITMAP
FE
86
8C
18
30
62
C2
FE
ENDCHAR
STARTCHAR 007B
ENCODING 123
SWIDTH 600 0
DWIDTH 10 0
BBX 5 13 2 -3
BITMAP
18
20
20
20
20
60
C0
20
20
20
20
20
18
ENDCHAR
STARTCHAR 007C
ENCODING 124
SWIDTH 600 0
DWIDTH 10 0
BBX 1 18 4 -4
BITMAP
80
80
80
80
80
80
80
80
80
80
80
80
80
80
80
80
80
80
ENDCHAR
STARTCHAR 007D
ENCODING 125
SWIDTH 600 0
DWIDTH 10 0
BBX 5 13 2 -3
BITMAP
C0
20
20
20
20
30
18
20
20
20
20
20
C0
ENDCHAR
STARTCHAR 007E
ENCODING 126
SWIDTH 600 0
DWIDTH 10 0
BBX 8 2 1 4
BITMAP
71
8E
ENDCHAR
STARTCHAR 00A0
ENCODING 160
SWIDTH 600 0
DWIDTH 10 0
BBX 0 0 0 0
BITMAP
ENDCHAR
STARTCHAR 00A1
ENCODING 161
SWIDTH 600 0
DWIDTH 10 0
BBX 3 10 4 0
BITMAP
E0
E0
E0
00
40
40
40
40
40
40
ENDCHAR
STARTCHAR 00A2
ENCODING 162
SWIDTH 600 0
DWIDTH 10 0
BBX 7 11 2 0
BITMAP
10
10
3E
46
82
80
80
42
3C
10
10
ENDCHAR
STARTCHAR 00A3
ENCODING 163
SWIDTH 600 0
DWIDTH 10 0
BBX 6 10 2 0
BITMAP
78
88
80
80
F8
40
40
40
40
FC
ENDCHAR
STARTCHAR 00A4
ENCODING 164
SWIDTH 600 0
DWIDTH 10 0
BBX 8 8 1 3
BITMAP
81
5A
24
42
42
24
5A
81
ENDCHAR
STARTCHAR 00A5
ENCODING 165
SWIDTH 600 0
DWIDTH 10 0
BBX 9 10 0 0
BITMAP
F780
2300
2200
F780
1400
FF80
0800
0800
0800
3E00
ENDCHAR
STARTCHAR 00A6
ENCODING 166
SWIDTH 600 0
DWIDTH 10 0
BBX 1 15 5 -3
BITMAP
80
80
80
80
80
80
00
00
00
80
80
80
80
80
80
ENDCHAR
STARTCHAR 00A7
ENCODING 167
SWIDTH 600 0
DWIDTH 10 0
BBX 8 11 1 -1
BITMAP
3E
42
42
F0
9C
C6
73
0D
02
42
7C
ENDCHAR
STARTCHAR 00A8
ENCODING 168
SWIDTH 600 0
DWIDTH 10 0
BBX 6 2 2 9
BITMAP
CC
CC
ENDCHAR
STARTCHAR 00A9
ENCODING 169
SWIDTH 600 0
DWIDTH 10 0
BBX 10 10 0 1
BITMAP
1E00
6180
5E80
B240
A040
A040
B240
5E80
6180
1E00
ENDCHAR
STARTCHAR 00AA
ENCODING 170
SWIDTH 600 0
DWIDTH 10 0
BBX 7 8 2 2
BITMAP
78
04
7C
84
8C
76
00
FE
ENDCHAR
STARTCHAR 00AB
ENCODING 171
SWIDTH 600 0
DWIDTH 10 0
BBX 4 6 3 1
BITMAP
50
50
A0
A0
50
50
ENDCHAR
STARTCHAR 00AC
ENCODING 172
SWIDTH 600 0
DWIDTH 10 0
BBX 8 5 1 2
BITMAP
FF
01
01
01
01
ENDCHAR
STARTCHAR 00AD
ENCODING 173
SWIDTH 600 0
DWIDTH 10 0
BBX 7 2 1 3
BITMAP
FE
FE
ENDCHAR
STARTCHAR 00AE
ENCODING 174
SWIDTH 600 0
DWIDTH 10 0
BBX 10 10 0 1
BITMAP
1E00
6180
7E80
9240
9E40
9440
9240
7B80
6180
1E00
ENDCHAR
STARTCHAR 00AF
ENCODING 175
SWIDTH 600 0
DWIDTH 10 0
BBX 6 1 2 9
BITMAP
FC
ENDCHAR
STARTCHAR 00B0
ENCODING 176
SWIDTH 600 0
DWIDTH 10 0
BBX 5 5 2 6
BITMAP
70
88
88
88
70
ENDCHAR
STARTCHAR 00B1
ENCODING 177
SWIDTH 600 0
DWIDTH 10 0
BBX 7 9 1 1
BITMAP
10
10
10
FE
10
10
10
00
FE
ENDCHAR
STARTCHAR 00B2
ENCODING 178
SWIDTH 600 0
DWIDTH 10 0
BBX 5 6 2 4
BITMAP
70
88
08
30
48
F8
ENDCHAR
STARTCHAR 00B3
ENCODING 179
SWIDTH 600 0
DWIDTH 10 0
BBX 5 6 2 4
BITMAP
78
88
30
08
88
F0
ENDCHAR
STARTCHAR 00B4
ENCODING 180
SWIDTH 600 0
DWIDTH 10 0
BBX 5 3 3 8
BITMAP
18
30
C0
ENDCHAR
STARTCHAR 00B5
ENCODING 181
SWIDTH 600 0
DWIDTH 10 0
BBX 8 11 1 -3
BITMAP
61
21
23
62
42
42
46
7F
C0
80
80
ENDCHAR
STARTCHAR 00B6
ENCODING 182
SWIDTH 600 0
DWIDTH 10 0
BBX 9 11 1 -1
BITMAP
3F80
FA00
FA00
FA00
FA00
3A00
0A00
0A00
0A00
0A00
3B80
ENDCHAR
STARTCHAR 00B7
ENCODING 183
SWIDTH 600 0
DWIDTH 10 0
BBX 3 3 3 4
BITMAP
E0
E0
E0
ENDCHAR
STARTCHAR 00B8
ENCODING 184
SWIDTH 600 0
DWIDTH 10 0
BBX 4 4 3 -4
BITMAP
40
70
10
F0
ENDCHAR
STARTCHAR 00B9
ENCODING 185
SWIDTH 600 0
DWIDTH 10 0
BBX 5 6 3 4
BITMAP
E0
20
20
20
20
F8
ENDCHAR
STARTCHAR 00BA
ENCODING 186
SWIDTH 600 0
DWIDTH 10 0
BBX 8 8 2 2
BITMAP
7C
C6
82
82
C6
7C
00
7F
ENDCHAR
STARTCHAR 00BB
ENCODING 187
SWIDTH 600 0
DWIDTH 10 0
BBX 4 6 3 1
BITMAP
A0
A0
50
50
A0
A0
ENDCHAR
STARTCHAR 00BC
ENCODING 188
SWIDTH 600 0
DWIDTH 10 0
BBX 8 12 1 -2
BITMAP
E0
20
20
20
21
FE
3E
C6
0A
12
1F
02
ENDCHAR
STARTCHAR 00BD
ENCODING 189
SWIDTH 600 0
DWIDTH 10 0
BBX 8 11 1 -1
BITMAP
E0
20
20
20
21
FE
E9
01
02
0C
0F
ENDCHAR
STARTCHAR 00BE
ENCODING 190
SWIDTH 600 0
DWIDTH 10 0
BBX 8 12 1 -2
BITMAP
70
90
20
10
11
EE
36
CE
0A
12
1F
02
ENDCHAR
STARTCHAR 00BF
ENCODING 191
SWIDTH 600 0
DWIDTH 10 0
BBX 6 10 2 0
BITMAP
38
38
38
00
10
30
C0
80
84
7C
ENDCHAR
STARTCHAR 00C0
ENCODING 192
SWIDTH 600 0
DWIDTH 10 0
BBX 10 13 0 0
BITMAP
3000
1800
0600
3C00
0C00
1600
1200
3200
2300
3F00
6180
4080
F3C0
ENDCHAR
STARTCHAR 00C1
ENCODING 193
SWIDTH 600 0
DWIDTH 10 0
BBX 10 13 0 0
BITMAP
0300
0600
1800
3C00
0C00
1600
1200
3200
2300
3F00
6180
4080
F3C0
ENDCHAR
STARTCHAR 00C2
ENCODING 194
SWIDTH 600 0
DWIDTH 10 0
BBX 10 13 0 0
BITMAP
0C00
3300
0000
3C00
0C00
1600
1200
3200
2300
3F00
6180
4080
F3C0
ENDCHAR
STARTCHAR 00C3
ENCODING 195
SWIDTH 600 0
DWIDTH 10 0
BBX 10 13 0 0
BITMAP
1D00
2E00
0000
3C00
0C00
1600
1200
3200
2300
3F00
6180
4080
F3C0
ENDCHAR
STARTCHAR 00C4
ENCODING 196
SWIDTH 600 0
DWIDTH 10 0
BBX 10 13 0 0
BITMAP
3300
3300
0000
3C00
0C00
1600
1200
3200
2300
3F00
6180
4080
F3C0
ENDCHAR
STARTCHAR 00C5
ENCODING 197
SWIDTH 600 0
DWIDTH 10 0
BBX 10 15 0 0
BITMAP
0C00
1200
1200
0C00
0000
3C00
0E00
0A00
1200
1300
3100
3F00
2180
6080
F3C0
ENDCHAR
STARTCHAR 00C6
ENCODING 198
SWIDTH 600 0
DWIDTH 10 0
BBX 10 10 0 0
BITMAP
3FC0
0C40
1440
1400
1700
2600
3C00
2440
6440
EFC0
ENDCHAR
STARTCHAR 00C7
ENCODING 199
SWIDTH 600 0
DWIDTH 10 0
BBX 8 14 1 -4
BITMAP
1F
63
41
81
80
80
80
40
63
3E
10
1C
04
3C
ENDCHAR
STARTCHAR 00C8
ENCODING 200
SWIDTH 600 0
DWIDTH 10 0
BBX 8 13 1 0
BITMAP
60
30
0C
FF
41
41
44
7C
44
40
41
41
FF
ENDCHAR
STARTCHAR 00C9
ENCODING 201
SWIDTH 600 0
DWIDTH 10 0
BBX 8 13 1 0
BITMAP
06
0C
30
FF
41
41
44
7C
44
40
41
41
FF
ENDCHAR
STARTCHAR 00CA
ENCODING 202
SWIDTH 600 0
DWIDTH 10 0
BBX 8 13 1 0
BITMAP
18
66
00
FF
41
41
44
7C
44
40
41
41
FF
ENDCHAR
STARTCHAR 00CB
ENCODING 203
SWIDTH 600 0
DWIDTH 10 0
BBX 8 13 1 0
BITMAP
66
66
00
FF
41
41
44
7C
44
40
41
41
FF
ENDCHAR
STARTCHAR 00CC
ENCODING 204
SWIDTH 600 0
DWIDTH 10 0
BBX 7 13 1 0
BITMAP
60
30
0C
FE
10
10
10
10
10
10
10
10
FE
ENDCHAR
STARTCHAR 00CD
ENCODING 205
SWIDTH 600 0
DWIDTH 10 0
BBX 7 13 1 0
BITMAP
06
0C
30
FE
10
10
10
10
10
10
10
10
FE
ENDCHAR
STARTCHAR 00CE
ENCODING 206
SWIDTH 600 0
DWIDTH 10 0
BBX 7 13 1 0
BITMAP
18
66
00
FE
10
10
10
10
10
10
10
10
FE
ENDCHAR
STARTCHAR 00CF
ENCODING 207
SWIDTH 600 0
DWIDTH 10 0
BBX 7 13 1 0
BITMAP
66
66
00
FE
10
10
10
10
10
10
10
10
FE
ENDCHAR
STARTCHAR 00D0
ENCODING 208
SWIDTH 600 0
DWIDTH 10 0
BBX 9 10 1 0
BITMAP
FE00
4300
4100
4080
F880
4080
4080
4100
4300
FC00
ENDCHAR
STARTCHAR 00D1
ENCODING 209
SWIDTH 600 0
DWIDTH 10 0
BBX 9 13 1 0
BITMAP
3A00
5C00
0000
E780
6100
7100
5100
4900
4D00
4500
4700
4300
F100
ENDCHAR
STARTCHAR 00D2
ENCODING 210
SWIDTH 600 0
DWIDTH 10 0
BBX 9 13 1 0
BITMAP
6000
3000
0C00
3E00
6300
4100
8080
8080
8080
8080
4100
6300
3E00
ENDCHAR
STARTCHAR 00D3
ENCODING 211
SWIDTH 600 0
DWIDTH 10 0
BBX 9 13 1 0
BITMAP
0600
0C00
3000
3E00
6300
4100
8080
8080
8080
8080
4100
6300
3E00
ENDCHAR
STARTCHAR 00D4
ENCODING 212
SWIDTH 600 0
DWIDTH 10 0
BBX 9 13 1 0
BITMAP
1800
6600
0000
3E00
6300
4100
8080
8080
8080
8080
4100
6300
3E00
ENDCHAR
STARTCHAR 00D5
ENCODING 213
SWIDTH 600 0
DWIDTH 10 0
BBX 9 13 1 0
BITMAP
3A00
5C00
0000
3E00
6300
4100
8080
8080
8080
8080
4100
6300
3E00
ENDCHAR
STARTCHAR 00D6
ENCODING 214
SWIDTH 600 0
DWIDTH 10 0
BBX 9 13 1 0
BITMAP
6600
6600
0000
3E00
6300
4100
8080
8080
8080
8080
4100
6300
3E00
ENDCHAR
STARTCHAR 00D7
ENCODING 215
SWIDTH 600 0
DWIDTH 10 0
BBX 6 6 2 2
BITMAP
84
48
30
30
48
84
ENDCHAR
STARTCHAR 00D8
ENCODING 216
SWIDTH 600 0
DWIDTH 10 0
BBX 9 12 1 -1
BITMAP
0100
1F00
6300
4780
8480
8C80
9880
9080
E100
6300
7C00
8000
ENDCHAR
STARTCHAR 00D9
ENCODING 217
SWIDTH 600 0
DWIDTH 10 0
BBX 9 13 1 0
BITMAP
6000
3000
0C00
E380
4100
4100
4100
4100
4100
4100
4100
2200
1E00
ENDCHAR
STARTCHAR 00DA
ENCODING 218
SWIDTH 600 0
DWIDTH 10 0
BBX 9 13 1 0
BITMAP
0600
0C00
3000
E380
4100
4100
4100
4100
4100
4100
4100
2200
1E00
ENDCHAR
STARTCHAR 00DB
ENCODING 219
SWIDTH 600 0
DWIDTH 10 0
BBX 9 13 1 0
BITMAP
1800
6600
0000
E380
4100
4100
4100
4100
4100
4100
4100
2200
1E00
ENDCHAR
STARTCHAR 00DC
ENCODING 220
SWIDTH 600 0
DWIDTH 10 0
BBX 9 13 1 0
BITMAP
6600
6600
0000
E380
4100
4100
4100
4100
4100
4100
4100
2200
1E00
ENDCHAR
STARTCHAR 00DD
ENCODING 221
SWIDTH 600 0
DWIDTH 10 0
BBX 9 13 0 0
BITMAP
0300
0600
1800
F780
2300
3200
1400
1400
0800
0800
0800
0800
3E00
ENDCHAR
STARTCHAR 00DE
ENCODING 222
SWIDTH 600 0
DWIDTH 10 0
BBX 8 10 1 0
BITMAP
F8
20
3E
23
21
21
23
3E
20
F8
ENDCHAR
STARTCHAR 00DF
ENCODING 223
SWIDTH 600 0
DWIDTH 10 0
BBX 9 11 0 0
BITMAP
1E00
2100
2100
2100
2E00
2180
2080
2080
2080
2180
EF00
ENDCHAR
STARTCHAR 00E0
ENCODING 224
SWIDTH 600 0
DWIDTH 10 0
BBX 8 11 1 0
BITMAP
60
30
0C
7C
46
02
02
7E
82
86
7B
ENDCHAR
STARTCHAR 00E1
ENCODING 225
SWIDTH 600 0
DWIDTH 10 0
BBX 8 11 1 0
BITMAP
06
0C
30
7C
46
02
02
7E
82
86
7B
ENDCHAR
STARTCHAR 00E2
ENCODING 226
SWIDTH 600 0
DWIDTH 10 0
BBX 8 11 1 0
BITMAP
18
66
00
7C
46
02
02
7E
82
86
7B
ENDCHAR
STARTCHAR 00E3
ENCODING 227
SWIDTH 600 0
DWIDTH 10 0
BBX 8 11 1 0
BITMAP
3A
5C
00
7C
46
02
02
7E
82
86
7B
ENDCHAR
STARTCHAR 00E4
ENCODING 228
SWIDTH 600 0
DWIDTH 10 0
BBX 8 11 1 0
BITMAP
66
66
00
7C
46
02
02
7E
82
86
7B
ENDCHAR
STARTCHAR 00E5
ENCODING 229
SWIDTH 600 0
DWIDTH 10 0
BBX 8 13 1 0
BITMAP
18
24
24
18
00
7C
46
02
02
7E
82
86
7B
ENDCHAR
STARTCHAR 00E6
ENCODING 230
SWIDTH 600 0
DWIDTH 10 0
BBX 9 8 0 0
BITMAP
7700
4880
0880
7F80
8800
8800
8800
7780
ENDCHAR
STARTCHAR 00E7
ENCODING 231
SWIDTH 600 0
DWIDTH 10 0
BBX 8 12 1 -4
BITMAP
3F
43
81
80
80
81
43
3C
10
1C
04
3C
ENDCHAR
STARTCHAR 00E8
ENCODING 232
SWIDTH 600 0
DWIDTH 10 0
BBX 9 11 1 0
BITMAP
6000
3000
0C00
3E00
4100
8080
FF80
8000
8000
4000
3F80
ENDCHAR
STARTCHAR 00E9
ENCODING 233
SWIDTH 600 0
DWIDTH 10 0
BBX 9 11 1 0
BITMAP
0600
0C00
3000
3E00
4100
8080
FF80
8000
8000
4000
3F80
ENDCHAR
STARTCHAR 00EA
ENCODING 234
SWIDTH 600 0
DWIDTH 10 0
BBX 9 11 1 0
BITMAP
1800
6600
0000
3E00
4100
8080
FF80
8000
8000
4000
3F80
ENDCHAR
STARTCHAR 00EB
ENCODING 235
SWIDTH 600 0
DWIDTH 10 0
BBX 9 11 1 0
BITMAP
6600
6600
0000
3E00
4100
8080
FF80
8000
8000
4000
3F80
ENDCHAR
STARTCHAR 00EC
ENCODING 236
SWIDTH 600 0
DWIDTH 10 0
BBX 7 11 2 0
BITMAP
C0
60
18
70
10
10
10
10
10
10
FE
ENDCHAR
STARTCHAR 00ED
ENCODING 237
SWIDTH 600 0
DWIDTH 10 0
BBX 7 11 2 0
BITMAP
0C
18
60
70
10
10
10
10
10
10
FE
ENDCHAR
STARTCHAR 00EE
ENCODING 238
SWIDTH 600 0
DWIDTH 10 0
BBX 7 11 2 0
BITMAP
30
CC
00
70
10
10
10
10
10
10
FE
ENDCHAR
STARTCHAR 00EF
ENCODING 239
SWIDTH 600 0
DWIDTH 10 0
BBX 7 11 2 0
BITMAP
CC
CC
00
70
10
10
10
10
10
10
FE
ENDCHAR
STARTCHAR 00F0
ENCODING 240
SWIDTH 600 0
DWIDTH 10 0
BBX 9 11 1 0
BITMAP
3200
1C00
6600
3F00
4100
8080
8080
8080
8080
4100
3E00
ENDCHAR
STARTCHAR 00F1
ENCODING 241
SWIDTH 600 0
DWIDTH 10 0
BBX 8 11 1 0
BITMAP
3A
5C
00
DC
62
42
42
42
42
42
E7
ENDCHAR
STARTCHAR 00F2
ENCODING 242
SWIDTH 600 0
DWIDTH 10 0
BBX 9 11 1 0
BITMAP
6000
3000
0C00
3E00
4100
8080
8080
8080
8080
4100
3E00
ENDCHAR
STARTCHAR 00F3
ENCODING 243
SWIDTH 600 0
DWIDTH 10 0
BBX 9 11 1 0
BITMAP
0600
0C00
3000
3E00
4100
8080
8080
8080
8080
4100
3E00
ENDCHAR
STARTCHAR 00F4
ENCODING 244
SWIDTH 600 0
DWIDTH 10 0
BBX 9 11 1 0
BITMAP
1800
6600
0000
3E00
4100
8080
8080
8080
8080
4100
3E00
ENDCHAR
STARTCHAR 00F5
ENCODING 245
SWIDTH 600 0
DWIDTH 10 0
BBX 9 11 1 0
BITMAP
3A00
5C00
0000
3E00
4100
8080
8080
8080
8080
4100
3E00
ENDCHAR
STARTCHAR 00F6
ENCODING 246
SWIDTH 600 0
DWIDTH 10 0
BBX 9 11 1 0
BITMAP
6600
6600
0000
3E00
4100
8080
8080
8080
8080
4100
3E00
ENDCHAR
STARTCHAR 00F7
ENCODING 247
SWIDTH 600 0
DWIDTH 10 0
BBX 8 7 1 2
BITMAP
18
18
00
FF
00
18
18
ENDCHAR
STARTCHAR 00F8
ENCODING 248
SWIDTH 600 0
DWIDTH 10 0
BBX 9 8 1 0
BITMAP
3E80
4300
8780
8C80
9880
A080
6100
BE00
ENDCHAR
STARTCHAR 00F9
ENCODING 249
SWIDTH 600 0
DWIDTH 10 0
BBX 8 11 1 0
BITMAP
60
30
0C
CE
42
42
42
42
42
46
3B
ENDCHAR
STARTCHAR 00FA
ENCODING 250
SWIDTH 600 0
DWIDTH 10 0
BBX 8 11 1 0
BITMAP
06
0C
30
CE
42
42
42
42
42
46
3B
ENDCHAR
STARTCHAR 00FB
ENCODING 251
SWIDTH 600 0
DWIDTH 10 0
BBX 8 11 1 0
BITMAP
18
66
00
CE
42
42
42
42
42
46
3B
ENDCHAR
STARTCHAR 00FC
ENCODING 252
SWIDTH 600 0
DWIDTH 10 0
BBX 8 11 1 0
BITMAP
66
66
00
CE
42
42
42
42
42
46
3B
ENDCHAR
STARTCHAR 00FD
ENCODING 253
SWIDTH 600 0
DWIDTH 10 0
BBX 9 14 0 -3
BITMAP
0300
0600
1800
F380
6100
2200
3200
1600
1400
0C00
0800
1800
1000
F800
ENDCHAR
STARTCHAR 00FE
ENCODING 254
SWIDTH 600 0
DWIDTH 10 0
BBX 9 14 1 -3
BITMAP
C000
4000
4000
5E00
6100
4080
4080
4080
4080
6100
5E00
4000
4000
F800
ENDCHAR
STARTCHAR 00FF
ENCODING 255
SWIDTH 600 0
DWIDTH 10 0
BBX 9 14 0 -3
BITMAP
3300
3300
0000
F380
6100
2200
3200
1600
1400
0C00
0800
1800
1000
F800
ENDCHAR
ENDFONT
